# xmcd
#
# Track frame offsets: 
#        150
#        20662
#        39005
#        57484
#        84018
#        98674
#        116931
#        138105
#        153390
#        172487
#
# Disc length: 2600 seconds
#
# Revision: 0
# Processed by: cddbd v1.5.2PL0 Copyright (c) Steve Scherf et al.
# Submitted via: ExactAudioCopy v1.0b4
#
DISCID=7b0a260a
DTITLE=Dogtown Blues Band - Everyday
DYEAR=2016
DGENRE=Blues
TTITLE0=Everyday I Have the Blues (feat. Barbara Morrison)
TTITLE1=Shrimp Walk
TTITLE2=Easy Baby (feat. Barbara Morrison)
TTITLE3=Boxcar 4468
TTITLE4=Doc's Boogie
TTITLE5=Variation II
TTITLE6=Ain't Nobody's Business (feat. Barbara Morrison)
TTITLE7=All the Way Down
TTITLE8=Same Old Blues (feat. Barbara Morrison)
TTITLE9=County Line
EXTD=
EXTT0=
EXTT1=
EXTT2=
EXTT3=
EXTT4=
EXTT5=
EXTT6=
EXTT7=
EXTT8=
EXTT9=
PLAYORDER=
